<svg width="121" height="105" viewBox="0 0 121 105" fill="none" xmlns="http://www.w3.org/2000/svg">
<path d="M88.2062 11.3625C108.645 18.9161 139.793 42.8211 100.87 78.0121C52.2154 122.001 5.04514 98.6736 2.22818 78.0121C0.44807 64.9557 7.56015 18.0275 78.8753 3.36453C98.3247 -0.63466 106.868 5.36404 107.535 6.03052" stroke="#FC7F3A" stroke-width="2.66599" stroke-linecap="round"/>
<path d="M58.6523 43.3228L51.3208 32.6589L44.6559 48.6548" stroke="#FC7F3A" stroke-width="2.66599" stroke-linecap="round" stroke-linejoin="round"/>
<path d="M52.0589 63.0673C52.1055 63.1837 52.1151 63.307 52.0877 63.4371C52.0643 63.5576 52.0013 63.6583 51.8986 63.7391C51.6835 63.8966 51.4705 64.0493 51.2595 64.1972C51.0458 64.3383 50.8259 64.4738 50.5998 64.6039C51.2106 65.6149 51.7542 66.617 52.2308 67.6102C52.7141 68.6007 53.1557 69.5959 53.5555 70.5959C54.0977 71.9521 54.566 73.2823 54.9602 74.5864C55.3614 75.8878 55.7289 77.1748 56.0629 78.4474C56.0821 78.6145 56.0553 78.7562 55.9827 78.8727C55.9197 78.9932 55.8265 79.0781 55.7032 79.1274C55.4704 79.2205 55.2656 79.1753 55.0889 78.9917C54.7109 78.6026 54.2186 78.1361 53.6118 77.5922C53.0092 77.0387 52.3429 76.455 51.6129 75.8412C50.887 75.2178 50.1228 74.578 49.3202 73.9217C48.5245 73.2627 47.7465 72.6284 46.9864 72.0187C46.2331 71.4063 45.5243 70.8356 44.8601 70.3068C44.1931 69.7711 43.6268 69.3182 43.1611 68.9483L47.6136 80.9793C47.8821 80.8958 48.154 80.8109 48.4293 80.7247C48.7115 80.6357 48.9937 80.5467 49.2759 80.4577C49.4211 80.4235 49.5588 80.44 49.6889 80.5071C49.8259 80.5715 49.9217 80.6722 49.9765 80.8092C50.0395 80.9667 50.0319 81.1167 49.9538 81.2592C49.8757 81.4016 49.7716 81.4989 49.6415 81.5509L49.6004 81.5673C49.0305 81.7316 48.4661 81.9096 47.9072 82.1012C47.3551 82.2902 46.8051 82.4942 46.2572 82.7133C45.7161 82.9296 45.1839 83.1583 44.6606 83.3993C44.1441 83.6375 43.6297 83.8908 43.1174 84.1592L43.0763 84.1757C42.9256 84.2359 42.7735 84.2331 42.6201 84.1674C42.4763 84.1057 42.377 84.0064 42.3222 83.8694C42.2675 83.7324 42.2641 83.5947 42.312 83.4564C42.3669 83.3153 42.4586 83.2071 42.5874 83.1318C42.8326 83.0099 43.0779 82.888 43.3231 82.7662C43.5751 82.6416 43.8238 82.5183 44.069 82.3965L39.1215 69.3359C38.516 69.5304 37.8955 69.7069 37.2598 69.8657C37.1146 69.9 36.977 69.8835 36.8469 69.8163C36.7208 69.7396 36.6305 69.6328 36.5757 69.4958C36.51 69.3314 36.521 69.18 36.6086 69.0417C36.6936 68.8965 36.7943 68.8006 36.9107 68.7541L36.9724 68.7294C37.7436 68.5323 38.4895 68.3215 39.2101 68.097C39.9347 67.8629 40.6464 67.6062 41.345 67.3268L42.1053 67.0229C42.1122 67.0201 42.1341 67.0153 42.1711 67.0085C42.2053 66.9948 42.2457 66.9866 42.2923 66.9839C42.3457 66.9784 42.4032 66.9832 42.4649 66.9983C42.5334 67.0106 42.6005 67.0394 42.6662 67.0846C42.7128 67.1216 42.8635 67.2401 43.1182 67.4402C43.373 67.6402 43.7037 67.9012 44.1105 68.2232C44.5173 68.5451 44.9843 68.9185 45.5116 69.3432C46.0457 69.7652 46.6121 70.218 47.2106 70.7017C47.816 71.1826 48.4378 71.6847 49.076 72.2081C49.7142 72.7315 50.3456 73.2576 50.9702 73.7864C51.5988 74.3057 52.2048 74.8181 52.7883 75.3237C53.3758 75.8196 53.9127 76.2882 54.3989 76.7293C54.1292 75.7965 53.8404 74.8554 53.5323 73.906C53.2243 72.9567 52.8759 71.9957 52.487 71.0231C52.0981 70.0505 51.6634 69.0724 51.1828 68.0888C50.7021 67.1052 50.1626 66.1134 49.5642 65.1133C49.4806 65.1626 49.3977 65.2037 49.3156 65.2365C49.2334 65.2694 49.1443 65.305 49.0484 65.3433C48.6443 65.5049 48.2148 65.6528 47.7601 65.7869C47.6176 65.828 47.4779 65.8163 47.3409 65.7519C47.208 65.6779 47.1142 65.5724 47.0595 65.4355C46.9992 65.2848 47.0034 65.1361 47.0719 64.9896C47.1472 64.8403 47.2534 64.7383 47.3904 64.6835L47.452 64.6588C47.6548 64.6096 47.8514 64.5548 48.0418 64.4946C48.2363 64.4247 48.4294 64.3515 48.6212 64.2748C49.0938 64.0859 49.5439 63.8702 49.9713 63.6278C50.3987 63.3854 50.8049 63.1198 51.1899 62.8308C51.2118 62.8062 51.257 62.7801 51.3255 62.7528C51.4762 62.6925 51.6214 62.698 51.7611 62.7693C51.9049 62.8309 52.0042 62.9303 52.0589 63.0673ZM71.0534 72.4542C71.0876 72.5994 71.0698 72.7336 70.9999 72.8569C70.9328 72.987 70.8307 73.0795 70.6937 73.1342L70.6732 73.1425C68.7814 73.7558 66.9587 74.413 65.2053 75.114C63.4244 75.826 61.7333 76.5736 60.1318 77.3569L60.0805 77.3774C59.9175 77.4267 59.7654 77.4239 59.6243 77.3691C59.4832 77.3143 59.3812 77.2081 59.3182 77.0506C59.2635 76.9136 59.2649 76.778 59.3224 76.6437C59.3772 76.5027 59.4738 76.3965 59.6122 76.3253C59.8231 76.2171 60.0369 76.1158 60.2533 76.0213C60.4739 75.9173 60.691 75.8146 60.9047 75.7132L55.8975 63.189C55.6729 63.2629 55.4509 63.3437 55.2317 63.4313C55.0194 63.5162 54.8037 63.6025 54.5845 63.6901C54.4352 63.7339 54.29 63.7284 54.1489 63.6736C54.0051 63.6119 53.903 63.5057 53.8428 63.3551C53.7825 63.2044 53.7867 63.0557 53.8552 62.9092C53.921 62.7558 54.0258 62.6503 54.1696 62.5928C54.4354 62.5025 54.6881 62.4094 54.9278 62.3135C55.1744 62.2149 55.4176 62.1177 55.6573 62.0219C57.1163 61.4386 58.5423 60.8128 59.9355 60.1446C61.3287 59.4764 62.6993 58.7616 64.0473 58.0002L64.1398 57.9633C64.2768 57.9085 64.4124 57.9099 64.5466 57.9674C64.6781 58.0182 64.7788 58.101 64.8486 58.2161L66.6788 61.5122L66.7076 61.5841C66.7705 61.7416 66.763 61.8916 66.6849 62.0341C66.6136 62.1738 66.5095 62.271 66.3725 62.3258C66.2424 62.3778 66.1095 62.3833 65.9739 62.3421C65.8424 62.2914 65.7356 62.2031 65.6534 62.077L64.1129 59.2968C63.3621 59.724 62.5998 60.1321 61.8258 60.521C61.0559 60.9003 60.275 61.272 59.4832 61.6363L62.1901 68.407C62.3518 68.3344 62.5669 68.2365 62.8354 68.1132C63.1039 67.99 63.3902 67.8517 63.6943 67.6983C64.0053 67.5422 64.3183 67.3813 64.6334 67.2157C64.9526 67.0404 65.2451 66.8678 65.5108 66.698L65.6136 66.6569C65.7574 66.5994 65.906 66.6036 66.0594 66.6694C66.2101 66.7283 66.3128 66.8262 66.3676 66.9632C66.4224 67.1002 66.4278 67.2331 66.384 67.3618C66.3401 67.4906 66.26 67.5981 66.1435 67.6844C65.8531 67.872 65.5346 68.0589 65.188 68.2452C64.8482 68.4286 64.5126 68.6026 64.1811 68.7669C63.8537 68.9216 63.5523 69.062 63.2769 69.1879C63.0016 69.3139 62.7831 69.4132 62.6214 69.4857L64.4904 74.1605L64.7781 74.0455C65.5932 73.7196 66.4158 73.4027 67.2459 73.0946C68.0829 72.7838 68.9302 72.4888 69.7878 72.2095L69.0568 69.3081C69.0294 69.1602 69.0472 69.0259 69.1103 68.9054C69.1774 68.7753 69.2761 68.6842 69.4062 68.6322C69.5706 68.5664 69.724 68.5726 69.8664 68.6507C70.0157 68.7261 70.1137 68.822 70.1602 68.9385L70.1931 69.0206L71.0534 72.4542ZM86.6344 49.7564C86.6864 49.8866 86.6885 50.0208 86.6405 50.1592C86.5967 50.2879 86.5172 50.3872 86.4021 50.4571C86.1035 50.6638 85.7993 50.8569 85.4897 51.0363C85.187 51.213 84.8671 51.3766 84.5301 51.5272C84.9079 53.0286 85.2214 54.369 85.4705 55.5484C85.7264 56.7251 85.9303 57.7916 86.0822 58.7477C86.2313 59.697 86.3367 60.5566 86.3982 61.3264C86.4597 62.0962 86.4883 62.8236 86.4841 63.5085C86.4867 64.1907 86.4626 64.8557 86.4118 65.5036C86.3651 66.1419 86.3048 66.8056 86.2307 67.4946C86.2197 67.5863 86.1827 67.6726 86.1197 67.7534C86.0662 67.8384 85.9916 67.9 85.8957 67.9383C85.6833 68.0232 85.4923 68.0122 85.3224 67.9054C84.6513 67.4587 84.0213 66.9956 83.4323 66.516C82.8434 66.0365 82.2983 65.5673 81.797 65.1083C81.2999 64.6397 80.8473 64.1931 80.4391 63.7684C80.0283 63.3368 79.6701 62.9478 79.3647 62.6011C79.4302 63.9573 79.4499 65.2483 79.4236 66.4743C79.3947 67.6934 79.302 68.9022 79.1456 70.1008C79.1374 70.1994 79.0997 70.2939 79.0326 70.3843C78.975 70.4788 78.8983 70.5452 78.8024 70.5835C78.6038 70.663 78.4127 70.6321 78.2292 70.491C77.2471 69.7635 76.3316 68.9935 75.4824 68.181C74.6306 67.3617 73.8465 66.5432 73.1302 65.7253C72.4208 64.9046 71.7758 64.1059 71.1951 63.3291C70.6117 62.5455 70.0995 61.8208 69.6586 61.155C69.2245 60.4865 68.8582 59.8981 68.5596 59.3898C68.2679 58.8788 68.0461 58.4829 67.8941 58.2021C67.7174 58.2569 67.5441 58.3103 67.3742 58.3623C67.2044 58.4143 67.0379 58.465 66.8749 58.5142C66.7297 58.5485 66.5886 58.5334 66.4517 58.469C66.3188 58.395 66.225 58.2895 66.1702 58.1525C66.1251 57.9799 66.136 57.8285 66.2032 57.6984C66.2676 57.5614 66.3683 57.4656 66.5053 57.4108L66.5464 57.3944C67.3601 57.1644 68.1779 56.8851 68.9998 56.5565C69.6574 56.2936 70.3019 56.0081 70.9334 55.7C71.5691 55.3823 72.1746 55.0489 72.75 54.6997L72.8322 54.6668C72.9897 54.6038 73.1417 54.6066 73.2883 54.6751C73.4321 54.7368 73.5314 54.8361 73.5862 54.9731C73.641 55.1101 73.6444 55.2478 73.5964 55.3861C73.5553 55.5217 73.4703 55.6272 73.3415 55.7025C73.0498 55.8668 72.7545 56.0325 72.4559 56.1996C72.1641 56.3639 71.8607 56.5289 71.5456 56.6946C71.6743 56.9371 71.8496 57.2563 72.0714 57.6522C72.2974 58.0385 72.5637 58.4762 72.8705 58.9653C73.1745 59.4475 73.5182 59.9694 73.9016 60.5311C74.2892 61.0832 74.7103 61.6497 75.165 62.2306C75.6238 62.8019 76.112 63.3773 76.6297 63.9568C77.1515 64.5267 77.7 65.074 78.2752 65.5988C78.2932 64.7098 78.2865 63.8187 78.2551 62.9256C78.2279 62.0229 78.165 61.1305 78.0666 60.2483C77.9681 59.3661 77.8354 58.4976 77.6684 57.6429C77.4987 56.7812 77.281 55.9388 77.0154 55.1155C76.9744 54.973 76.9806 54.8395 77.034 54.7148C77.0916 54.5806 77.1861 54.4792 77.3176 54.4108C77.4546 54.356 77.5909 54.3492 77.7265 54.3903C77.8621 54.4314 77.973 54.5102 78.0593 54.6266C78.5208 55.3637 79.0131 56.0884 79.5363 56.8008C80.0567 57.5063 80.6168 58.2118 81.2166 58.9174C81.8206 59.6134 82.4643 60.3093 83.1477 61.0053C83.8311 61.7013 84.5604 62.4027 85.3356 63.1097C85.3302 62.5001 85.2927 61.8399 85.2229 61.1289C85.16 60.4153 85.0547 59.6153 84.9069 58.729C84.7591 57.8427 84.5675 56.8468 84.3321 55.7414C84.0967 54.6359 83.8024 53.3832 83.4492 51.9832C83.1355 52.0927 82.8191 52.1954 82.4999 52.2912C82.1849 52.3775 81.8554 52.4575 81.5116 52.5314C81.3801 52.5602 81.2506 52.5444 81.1232 52.4841C81 52.4142 80.9123 52.3142 80.8603 52.1841C80.7891 52.006 80.7939 51.8492 80.8748 51.7136C80.9597 51.5684 81.0604 51.4725 81.1769 51.426L81.2796 51.3849C82.0138 51.2343 82.7268 51.0208 83.4186 50.7442C83.8296 50.5799 84.2289 50.3964 84.6166 50.1937C85.0043 49.9911 85.3811 49.761 85.7468 49.5036L85.8701 49.4543C86.0208 49.394 86.1729 49.3968 86.3263 49.4626C86.4769 49.5215 86.5796 49.6195 86.6344 49.7564ZM95.5707 61.6751C95.6583 61.8943 95.6994 62.1162 95.6939 62.3408C95.6883 62.5655 95.6424 62.7785 95.5561 62.9798C95.4766 63.1784 95.3574 63.3571 95.1985 63.516C95.0395 63.6749 94.8505 63.7981 94.6313 63.8858C94.4121 63.9734 94.1902 64.0144 93.9656 64.0089C93.7409 64.0034 93.5279 63.9575 93.3266 63.8712C93.1252 63.7848 92.9451 63.6622 92.7863 63.5033C92.6274 63.3443 92.5041 63.1553 92.4165 62.9361C92.3316 62.7238 92.2919 62.5053 92.2975 62.2806C92.303 62.056 92.3503 61.8464 92.4393 61.6519C92.5284 61.4574 92.6524 61.2807 92.8113 61.1219C92.9703 60.963 93.1593 60.8398 93.3785 60.7521C93.5977 60.6645 93.8196 60.6234 94.0442 60.629C94.2689 60.6345 94.4771 60.6784 94.6688 60.7606C94.8674 60.8401 95.0462 60.9593 95.205 61.1182C95.3639 61.2771 95.4858 61.4627 95.5707 61.6751ZM90.9806 49.5084C91.1558 49.9468 91.3283 50.4577 91.4981 51.0413C91.6719 51.6153 91.8403 52.2351 92.0032 52.9009C92.1729 53.5639 92.3399 54.2598 92.5042 54.9886C92.6657 55.7105 92.8272 56.4324 92.9887 57.1543C93.0859 57.5762 93.179 57.9878 93.2679 58.3892C93.3569 58.7906 93.4466 59.1837 93.5369 59.5687C93.5711 59.7139 93.5547 59.8515 93.4875 59.9816C93.4176 60.1049 93.3142 60.1939 93.1772 60.2487C93.0471 60.3007 92.9142 60.3062 92.7786 60.2651C92.6471 60.2144 92.5437 60.1246 92.4684 59.9958C92.2657 59.6479 92.0507 59.289 91.8234 58.9191C91.5961 58.5492 91.3667 58.1642 91.1353 57.7642C90.7601 57.1436 90.3848 56.523 90.0096 55.9025C89.6385 55.2723 89.2886 54.6654 88.96 54.0818C88.6286 53.4914 88.326 52.9331 88.0521 52.4071C87.7824 51.8714 87.5598 51.3844 87.3846 50.9461C87.286 50.6995 87.2388 50.4522 87.2429 50.2043C87.2512 49.9468 87.3047 49.703 87.4033 49.4729C87.502 49.2428 87.6397 49.0407 87.8164 48.8668C87.9973 48.6833 88.211 48.5422 88.4576 48.4436C88.7042 48.3451 88.9562 48.2999 89.2137 48.3082C89.4685 48.3096 89.711 48.3596 89.9411 48.4583C90.1712 48.5569 90.378 48.6967 90.5615 48.8775C90.7423 49.0515 90.882 49.2618 90.9806 49.5084Z" fill="#FC7F3A"/>
</svg>
